<?xml version="1.0" standalone="no"?>
<!DOCTYPE svg PUBLIC "-//W3C//DTD SVG 20010904//EN"
 "http://www.w3.org/TR/2001/REC-SVG-20010904/DTD/svg10.dtd">
<svg version="1.0" xmlns="http://www.w3.org/2000/svg"
 width="131.000000pt" height="159.000000pt" viewBox="0 0 131.000000 159.000000"
 preserveAspectRatio="xMidYMid meet">

<g transform="translate(0.000000,159.000000) scale(0.100000,-0.100000)"
fill="#ffffff" stroke="none">
<path d="M901 1434 c-28 -35 -27 -43 15 -127 161 -317 163 -679 8 -1004 -50
-106 -50 -137 0 -161 65 -32 121 40 190 249 84 251 88 530 11 784 -26 85 -96
238 -122 268 -25 27 -78 22 -102 -9z"/>
<path d="M656 1309 c-35 -28 -33 -51 13 -150 53 -114 71 -185 78 -311 9 -164
-17 -291 -87 -429 -34 -67 -37 -95 -14 -127 11 -16 25 -22 54 -22 47 0 66 23
117 143 58 138 77 233 76 387 -1 158 -28 280 -90 413 -53 113 -93 139 -147 96z"/>
<path d="M403 1185 c-35 -25 -36 -59 -4 -123 44 -87 63 -165 63 -256 1 -102
-15 -171 -58 -258 -40 -79 -41 -87 -13 -122 17 -22 28 -27 58 -24 30 3 41 10
67 49 17 26 44 86 60 135 26 79 29 103 29 209 -1 97 -5 135 -24 195 -55 177
-112 241 -178 195z"/>
<path d="M150 1050 c-27 -27 -25 -46 12 -126 45 -95 44 -168 -1 -257 -37 -74
-37 -102 1 -130 37 -27 71 -16 108 35 79 108 90 272 29 403 -43 91 -103 121
-149 75z"/>
</g>
</svg>
