<?xml version="1.0" encoding="utf-8"?>
<!-- Generator: Adobe Illustrator 18.1.1, SVG Export Plug-In . SVG Version: 6.00 Build 0)  -->
<svg version="1.1" id="Ebene_1" xmlns="http://www.w3.org/2000/svg" xmlns:xlink="http://www.w3.org/1999/xlink" x="0px" y="0px"
	 viewBox="0 0 120 120" enable-background="new 0 0 120 120" xml:space="preserve">
<g>
	<g>
		<g>
			<g>
				<path fill="#FFFFFF" d="M51.6,89.9c-1,0-1.9-0.9-1.9-1.9V31.5c0-1,0.9-1.9,1.9-1.9h32.8c1,0,1.9,0.9,1.9,1.9V88
					c0,1-0.9,1.9-1.9,1.9H51.6z"/>
				<path fill="#42566B" d="M84.3,30.6c0.5,0,0.9,0.4,0.9,0.9V88c0,0.5-0.4,0.9-0.9,0.9H51.6c-0.5,0-0.9-0.4-0.9-0.9l0-56.5
					c0-0.5,0.4-0.9,0.9-0.9H84.3 M84.3,28.6H51.6c-1.6,0-2.9,1.3-2.9,2.9l0,56.5c0,1.6,1.3,2.9,2.9,2.9h32.8c1.6,0,2.9-1.3,2.9-2.9
					V31.5C87.2,29.9,85.9,28.6,84.3,28.6L84.3,28.6z"/>
			</g>
		</g>
		<rect x="57.5" y="28.6" fill="#FFFFFF" stroke="#44566B" stroke-width="2" stroke-miterlimit="10" width="5.9" height="62.3"/>
		<path fill="#FFFFFF" stroke="#44566B" stroke-width="2" stroke-miterlimit="10" d="M69.2,61c0-7,0-14.1,0-21.1"/>
		<path fill="#FFFFFF" stroke="#44566B" stroke-width="2" stroke-miterlimit="10" d="M69.2,86.5c0-7.5,0-15.1,0-22.6"/>
		<line fill="#FFFFFF" stroke="#44566B" stroke-width="2" stroke-miterlimit="10" x1="74.3" y1="86.5" x2="74.3" y2="70.5"/>
		<line fill="#FFFFFF" stroke="#44566B" stroke-width="2" stroke-miterlimit="10" x1="74.3" y1="68.7" x2="74.3" y2="59.9"/>
		<line fill="#FFFFFF" stroke="#44566B" stroke-width="2" stroke-miterlimit="10" x1="77.7" y1="86.5" x2="77.7" y2="70.5"/>
		<line fill="#FFFFFF" stroke="#44566B" stroke-width="2" stroke-miterlimit="10" x1="77.7" y1="68.7" x2="77.7" y2="59.9"/>
		<line fill="#FFFFFF" stroke="#44566B" stroke-width="2" stroke-miterlimit="10" x1="74.3" y1="58.2" x2="74.3" y2="49.4"/>
	</g>
	<g>
		<rect x="77.5" y="35.4" fill="#FFFFFF" stroke="#42566B" stroke-width="2" stroke-miterlimit="10" width="22.5" height="63.5"/>
		<g>
			<rect x="81.2" y="39.1" fill="#FFFFFF" width="15" height="56"/>
			<rect x="81.2" y="39.1" fill="none" stroke="#42566B" stroke-width="2" stroke-miterlimit="10" width="15" height="56"/>
		</g>
		<g>
			<ellipse fill="#FFFFFF" stroke="#42566B" stroke-width="2" stroke-miterlimit="10" cx="88.7" cy="67.1" rx="9.1" ry="7.4"/>
			<g>
				<path fill="#3da5e1" d="M86,65.1c-0.5,0.6-0.8,1-0.8,1.8c0,0.8,0.4,1.3,1.2,1.3c1.8,0,1.5-4.1,4.5-4.1c1.4,0,2.5,0.8,2.8,2.3
					h1.6v1.2h-1.5c-0.1,0.9-0.5,1.9-1.2,2.6l-1.2-0.8c0.6-0.7,0.9-1.4,0.9-2.2c0-1-0.5-1.5-1.3-1.5c-2,0-1.7,4.1-4.6,4.1
					c-1.4,0-2.4-0.9-2.7-2.2h-1.5v-1.2h1.5c0.1-1,0.6-1.6,1.2-2.2L86,65.1z"/>
			</g>
		</g>
		<circle fill="#FFFFFF" stroke="#42566B" stroke-width="2" stroke-miterlimit="10" cx="88.2" cy="49.7" r="2.3"/>
		<circle fill="#FFFFFF" stroke="#42566B" stroke-width="2" stroke-miterlimit="10" cx="88.2" cy="83.6" r="2.3"/>
	</g>
	<g>
		<rect x="19.6" y="28.4" fill="#FFFFFF" stroke="#42566B" stroke-width="2" stroke-miterlimit="10" width="22.5" height="63.5"/>
		<g>
			<rect x="23.4" y="32.1" fill="#FFFFFF" width="15" height="56"/>
			<rect x="23.4" y="32.1" fill="none" stroke="#42566B" stroke-width="2" stroke-miterlimit="10" width="15" height="56"/>
		</g>
		<g>
			<ellipse fill="#FFFFFF" stroke="#42566B" stroke-width="2" stroke-miterlimit="10" cx="30.9" cy="60.1" rx="9.1" ry="7.4"/>
			<g>
				<path fill="#3da5e1" d="M28.1,58.1c-0.5,0.6-0.8,1-0.8,1.8c0,0.8,0.4,1.3,1.2,1.3c1.8,0,1.5-4.1,4.5-4.1c1.4,0,2.5,0.8,2.8,2.3
					h1.6v1.2h-1.5c-0.1,0.9-0.5,1.9-1.2,2.6l-1.2-0.8c0.6-0.7,0.9-1.4,0.9-2.2c0-1-0.5-1.5-1.3-1.5c-2,0-1.7,4.1-4.6,4.1
					c-1.4,0-2.4-0.9-2.7-2.2h-1.5v-1.2h1.5c0.1-1,0.6-1.6,1.2-2.2L28.1,58.1z"/>
			</g>
		</g>
		<circle fill="#FFFFFF" stroke="#42566B" stroke-width="2" stroke-miterlimit="10" cx="30.4" cy="42.7" r="2.3"/>
		<circle fill="#FFFFFF" stroke="#42566B" stroke-width="2" stroke-miterlimit="10" cx="30.4" cy="76.6" r="2.3"/>
	</g>
	<g>
		<rect x="80.5" y="20.1" fill="#43566B" width="2.4" height="2.4"/>
		<rect x="85" y="20.1" fill="#43566B" width="2.4" height="2.4"/>
		<rect x="89.4" y="20.1" fill="#43566B" width="2.4" height="2.4"/>
	</g>
	<g>
		<rect x="60.4" y="20.1" fill="#43566B" width="2.4" height="2.4"/>
		<rect x="64.8" y="20.1" fill="#43566B" width="2.4" height="2.4"/>
		<rect x="69.2" y="20.1" fill="#43566B" width="2.4" height="2.4"/>
	</g>
	<polyline fill="none" stroke="#43566B" stroke-width="2" stroke-miterlimit="10" points="14.2,37.6 14.2,23.2 32.5,23.2 	"/>
	<polyline fill="none" stroke="#43566B" stroke-width="2" stroke-miterlimit="10" points="105.2,45 105.2,30.6 92.8,30.6 	"/>
	<g>
		<g>
			<g>
				<path fill="#C5DADE" d="M44.7,97.9c-7.9,0-14.3-6.4-14.3-14.3c0-7.9,6.4-14.3,14.3-14.3c7.9,0,14.3,6.4,14.3,14.3
					C59,91.5,52.6,97.9,44.7,97.9z"/>
			</g>
		</g>
		<g>
			<g>
				<path fill="#42566B" d="M44.7,72.3c6.2,0,11.2,5,11.2,11.2s-5,11.2-11.2,11.2c-6.2,0-11.2-5-11.2-11.2S38.5,72.3,44.7,72.3
					 M44.7,71.2c-6.8,0-12.3,5.5-12.3,12.3s5.5,12.3,12.3,12.3c6.8,0,12.3-5.5,12.3-12.3S51.5,71.2,44.7,71.2L44.7,71.2z"/>
			</g>
		</g>
		<g>
			<path fill="#42566B" d="M46.8,80.2c-0.6-0.6-1.1-0.9-1.9-0.9c-0.9,0-1.4,0.5-1.4,1.3c0,2,4.5,1.6,4.5,4.9c0,1.6-0.9,2.7-2.6,3
				v1.7h-1.3v-1.7c-1-0.1-2.1-0.6-2.9-1.3l0.9-1.3c0.8,0.6,1.6,1,2.5,1c1.1,0,1.6-0.5,1.6-1.4c0-2.2-4.5-1.9-4.5-5
				c0-1.5,1-2.6,2.5-2.9v-1.7h1.3v1.7c1.1,0.1,1.8,0.6,2.4,1.3L46.8,80.2z"/>
		</g>
	</g>
	<g>
		<g>
			<g>
				<path fill="#C5DADE" d="M79.3,59.1c-7.9,0-14.3-6.4-14.3-14.3s6.4-14.3,14.3-14.3c7.9,0,14.3,6.4,14.3,14.3S87.2,59.1,79.3,59.1
					z"/>
			</g>
		</g>
		<g>
			<g>
				<path fill="#42566B" d="M79.3,33.6c6.2,0,11.2,5,11.2,11.2c0,6.2-5,11.2-11.2,11.2c-6.2,0-11.2-5-11.2-11.2
					C68.1,38.6,73.1,33.6,79.3,33.6 M79.3,32.4C72.5,32.4,67,38,67,44.8s5.5,12.3,12.3,12.3c6.8,0,12.3-5.5,12.3-12.3
					S86.1,32.4,79.3,32.4L79.3,32.4z"/>
			</g>
		</g>
		<g>
			<path fill="#42566B" d="M81.4,41.4c-0.6-0.6-1.1-0.9-1.9-0.9c-0.9,0-1.4,0.5-1.4,1.3c0,2,4.5,1.6,4.5,4.9c0,1.6-0.9,2.7-2.6,3
				v1.7h-1.3v-1.7c-1-0.1-2.1-0.6-2.9-1.3l0.9-1.3c0.8,0.6,1.6,1,2.5,1c1.1,0,1.6-0.5,1.6-1.4c0-2.2-4.5-1.9-4.5-5
				c0-1.5,1-2.6,2.5-2.9v-1.7H80V39c1.1,0.1,1.8,0.6,2.4,1.3L81.4,41.4z"/>
		</g>
	</g>
	<g>
		<path fill="#3da5e1" stroke="#44566B" stroke-width="2" stroke-miterlimit="10" d="M55.8,48.7c-7,4.6-14,2.5-20.5-1.7
			c0,0-0.1,32.8,20.5,39.9C76.4,79.8,76.3,47,76.3,47C69.7,51.3,62.7,53.1,55.8,48.7z"/>
		<circle fill="#FFFFFF" stroke="#42566B" stroke-width="2" stroke-miterlimit="10" cx="55.8" cy="65.6" r="8.8"/>
		<g>
			<g>
				<path fill="#3da5e1" d="M55.7,69.6c-0.3,0-0.6-0.1-0.8-0.2l-2.9-2c-0.7-0.4-0.8-1.3-0.4-2c0.4-0.7,1.3-0.8,2-0.4l1.6,1.1
					l2.3-4.2c0.4-0.7,1.3-1,2-0.6c0.7,0.4,1,1.3,0.6,2l-3,5.6c-0.2,0.4-0.5,0.6-0.9,0.7C55.9,69.5,55.8,69.6,55.7,69.6z"/>
			</g>
		</g>
	</g>
</g>
</svg>
