<?xml version="1.0" encoding="utf-8"?>
<!-- Generator: Adobe Illustrator 18.1.1, SVG Export Plug-In . SVG Version: 6.00 Build 0)  -->
<svg version="1.1" id="Ebene_1" xmlns="http://www.w3.org/2000/svg" xmlns:xlink="http://www.w3.org/1999/xlink" x="0px" y="0px"
	 viewBox="0 0 120 120" enable-background="new 0 0 120 120" xml:space="preserve">
<g>
	<g>
		<polygon fill="#FFFFFF" stroke="#43566B" stroke-width="2" stroke-linejoin="round" stroke-miterlimit="10" points="13.9,16.6 
			13.9,100.9 77.5,100.9 77.5,20.5 70.2,16.6 		"/>
		<polygon fill="#FFFFFF" stroke="#43566B" stroke-width="2" stroke-linejoin="round" stroke-miterlimit="10" points="70.2,16.6 
			77.5,20.5 71.4,22.4 		"/>
		<g>
			
				<line fill="none" stroke="#43566B" stroke-width="2" stroke-linejoin="round" stroke-miterlimit="10" stroke-dasharray="2,2,23" x1="69.7" y1="32.1" x2="21.8" y2="32.1"/>
			
				<line fill="none" stroke="#43566B" stroke-width="2" stroke-linejoin="round" stroke-miterlimit="10" stroke-dasharray="2,2,23" x1="69.7" y1="37.7" x2="21.8" y2="37.7"/>
			
				<line fill="none" stroke="#43566B" stroke-width="2" stroke-linejoin="round" stroke-miterlimit="10" stroke-dasharray="2,2,36" x1="69.7" y1="53.8" x2="21.8" y2="53.8"/>
			
				<line fill="none" stroke="#43566B" stroke-width="2" stroke-linejoin="round" stroke-miterlimit="10" stroke-dasharray="2,2,36" x1="69.7" y1="59.8" x2="21.8" y2="59.8"/>
			
				<line fill="none" stroke="#43566B" stroke-width="2" stroke-linejoin="round" stroke-miterlimit="10" stroke-dasharray="2,2,36" x1="69.7" y1="65.9" x2="21.8" y2="65.9"/>
			
				<line fill="none" stroke="#43566B" stroke-width="2" stroke-linejoin="round" stroke-miterlimit="10" stroke-dasharray="2,2,36" x1="69.7" y1="71.9" x2="21.8" y2="71.9"/>
			
				<line fill="none" stroke="#43566B" stroke-width="2" stroke-linejoin="round" stroke-miterlimit="10" stroke-dasharray="2,2,36" x1="69.7" y1="77.9" x2="21.8" y2="77.9"/>
			
				<line fill="none" stroke="#43566B" stroke-width="2" stroke-linejoin="round" stroke-miterlimit="10" stroke-dasharray="2,2,36" x1="69.7" y1="84" x2="21.8" y2="84"/>
			
				<line fill="none" stroke="#43566B" stroke-width="2" stroke-linejoin="round" stroke-miterlimit="10" stroke-dasharray="2,2,36" x1="69.7" y1="90" x2="21.8" y2="90"/>
			
				<line fill="none" stroke="#43566B" stroke-width="2" stroke-linejoin="round" stroke-miterlimit="10" stroke-dasharray="2,2,23" x1="69.7" y1="43.2" x2="21.8" y2="43.2"/>
			
				<rect x="24" y="32" fill="#FFFFFF" stroke="#43566B" stroke-width="2" stroke-linejoin="round" stroke-miterlimit="10" width="10.9" height="11.4"/>
		</g>
	</g>
	<g>
		<path fill="#C8E2E8" d="M27,104.6c0,0-0.6-5.8,0.5-6.6c1.1-0.7,8.1-6.6,26.4-12.1c0,0.3,1.2-0.8,1.2-0.8l9.4,13.3l2.6-0.4
			l9.6-12.6c1.2-0.5,27.7,9.7,28,13.3c0.3-0.1,0,5.5,0,5.5L27,104.6z"/>
		<path fill="none" stroke="#43566B" stroke-width="2" stroke-miterlimit="10" d="M55,85.2v-3.5c0,0,4.4,3.8,5.9,4.3
			c1.5,0.5,8.4,0,8.4,0s7.5-4,7.5-4.9s-0.3,4.4-0.3,4.4L67,98.1l-2.6,0.4L55,85.2z"/>
		<path fill="#FFFFFF" d="M55,82c0,0-6-12.9-6.6-11.7c-0.7,1.6-3.5-4.1-2.1-9.9c0.3-1.4,2.5-1.7,2.4-1.5l2.2-12.2
			c0,0,3.4-6.1,4.2-6.3c0.8-0.2,9.6,0.5,9.6,0.5l5.9-0.5c0,0,5.5,1.8,6.8,3.1c1.3,1.3,2.7,3.2,3.2,11c0.1,0.2,0.8,4.9,0.8,4.9
			l2.8,1.3c0,0,1.4,7.8-0.6,10.1l-1.6,0.4l-1.2,5l-5.3,6.5l-6,3.5h-8.4L55,82z"/>
		<path fill="#43566B" stroke="#43566B" stroke-width="2" stroke-miterlimit="10" d="M48.6,56.2c0,0-1-6.2-0.5-8.4
			c0.5-2.2,1.8-5,1.8-5s6.5-8.9,16-9c9.5-0.1,15.4,7.5,15.5,9.1c0.1,1.6,1.4,8.1,0.5,14.8c-0.1-0.2-1.6-4.1-1.6-4.1S79.9,45.5,79,45
			c-0.9-0.5-4.3-5.8-13.6-4.4c0,0.2-8.9-0.8-9.9-0.5c-1,0.3-4,3.5-4.8,6.7C50.1,49.9,48.6,56.2,48.6,56.2z"/>
		<g>
			<path fill="none" stroke="#43566B" stroke-width="2" stroke-miterlimit="10" d="M67,34c0,0-9.3-1.6-16.7,8.9
				c-0.1,0.1-0.1,0.2-0.2,0.3c-2.1,4.4-2.3,9.1-1.6,14c0.1,1-0.5,2.1-1.5,2.2c-0.3,0.1-0.6,0.3-0.7,1.1c-0.2,2.4,0.5,9.1,1.4,9.9
				l0.6,0.4c0.2,0.2,0.4,0.4,0.6,0.7c0.9,1.8,4.6,8.9,6,10.4c1.7,1.7,5.2,4,6.1,4.2c1,0.2,6.5,0.2,7.8,0c1.3-0.2,3.8-1.9,5.4-3.1
				c2.4-1.8,3.1-1.5,6.3-7.2c0.1-0.2,0.2-0.4,0.2-0.5l0.6-2.8c0.2-0.7,0.7-1.3,1.4-1.5c0.3-0.1,0.5-0.2,0.7-0.6
				c0.5-1.1,1.7-9.8,0-10.2c0,0-0.1,0-0.1,0c-0.9-0.2-1.6-1.1-1.5-2.1c0.7-6.8,0.5-10.9-0.7-15.2c0-0.1-0.1-0.2-0.1-0.3
				C80.6,41.3,77.2,35.1,67,34z"/>
			<path fill="none" stroke="#43566B" stroke-width="2" stroke-miterlimit="10" d="M48.9,71.4c-0.5-2.1-0.2-7.8-0.2-10.2
				c0-2.4,0.7-5.2,0.8-7.1c0.1-1.9,0.8-5.4,1-6.9c0.1-1.4,2.5-5.5,4.2-6.7c1.7-1.2,10.5,0,10.5,0s4.9-0.8,8.4,0.6
				c3.5,1.4,5.1,2.6,5.7,4.6c0.6,1.9,0.8,6.3,1.3,8.4s0.8,6.4,1.1,9.1c0.2,2.8,0.7,5.7-0.1,9.1"/>
			<polyline fill="none" stroke="#43566B" stroke-width="2" stroke-miterlimit="10" points="53.8,86 53.8,100.4 60.3,94 			"/>
			<polyline fill="none" stroke="#43566B" stroke-width="2" stroke-miterlimit="10" points="69.9,94.9 74.7,100.4 77.7,85.9 			"/>
			<path fill="none" stroke="#43566B" stroke-width="2" stroke-miterlimit="10" d="M55,81.9v3.3c0,0-26.9,9.5-27.7,13.3
				c-0.7,3.8,0,6.2,0,6.2h77.2c0,0,0.7-2.3,0-6.2c-0.7-3.8-27.7-13.3-27.7-13.3v-3.3"/>
			<polyline fill="none" stroke="#43566B" stroke-width="2" stroke-miterlimit="10" points="55,85.2 64.6,98.5 67,98.5 76.9,85.2 
							"/>
			<line fill="none" stroke="#43566B" stroke-width="2" stroke-miterlimit="10" x1="64.6" y1="98.5" x2="64.9" y2="104.6"/>
			<line fill="none" stroke="#43566B" stroke-width="2" stroke-miterlimit="10" x1="67" y1="98.5" x2="67" y2="104.6"/>
		</g>
	</g>
</g>
</svg>
