<?xml version="1.0" encoding="utf-8"?>
<!-- Generator: Adobe Illustrator 26.3.1, SVG Export Plug-In . SVG Version: 6.00 Build 0)  -->
<svg version="1.1" id="Layer_1" xmlns="http://www.w3.org/2000/svg" xmlns:xlink="http://www.w3.org/1999/xlink" x="0px" y="0px"
	 viewBox="0 0 640 149" style="enable-background:new 0 0 640 149;" xml:space="preserve">
<style type="text/css">
	.st0{fill:#fff;}
</style>
<g id="Layer_2_00000000197543014552292700000008940914749048990372_">
	<g>
		<g>
			<g>
				<polygon class="st0" points="178.2,34.3 226.2,114.7 243.3,114.7 195.8,34.3 				"/>
				<path class="st0" d="M202.2,83.8c-1.2-2.2-2.2-3.9-2.9-5.4l-21.8,36h16.9l9.1-15.9c1.2-2.2,1.7-4.7,1.2-7.3
					C203.7,88.7,203.2,86.3,202.2,83.8z"/>
				<path class="st0" d="M217.9,50.3c-1.2,2.2-1.7,4.7-1.2,7.3s1.2,5.1,2.2,7.3c1.2,2.2,2.2,3.9,2.9,5.4l21.8-36h-16.9L217.9,50.3z"
					/>
				<polygon class="st0" points="279.3,34.3 250.2,114.7 265.9,114.7 285.5,54.9 286.4,50.7 286.9,54.7 307,114.7 323.4,114.7
					294.5,34.3 				"/>
				<polygon class="st0" points="604.9,34.3 589.2,34.3 560.3,114.7 576,114.7 595.6,54.9 596.5,50.7 597,54.7 617.4,114.7
					633.5,114.7 				"/>
				<polygon class="st0" points="365.1,95.3 363.8,99.5 363.1,95.3 344.2,34.3 327.6,34.3 355.8,114.7 372.2,114.7 399.9,34.3
					383.7,34.3 				"/>
				<rect x="409.4" y="34.3" class="st0" width="15.4" height="80.3"/>
				<path class="st0" d="M483.1,75c-2.9-2.2-5.9-4.2-9.1-5.9c-3.2-1.7-6.1-3.4-9.1-4.9c-2.9-1.5-5.1-3.4-7.1-5.1
					c-1.7-2-2.7-4.2-2.7-6.6c0-2.4,1-4.7,2.9-6.1c2-1.7,4.7-2.4,7.8-2.4c3.9,0,13,1.7,19.1,1.7V34.3c-4.7,0-15.4-1.5-20.1-1.5
					c-4.4,0-8.3,0.7-12,2.2s-6.6,3.7-8.8,6.9c-2.2,3.2-3.4,7.1-3.4,11.8c0,3.9,1,7.3,2.7,10.3c1.7,2.9,4.2,5.4,6.9,7.3
					c2.9,2,5.9,3.9,9.1,5.6c3.2,1.7,6.1,3.2,9.1,4.9c2.9,1.7,5.1,3.4,6.9,5.4c1.7,2,2.7,4.2,2.7,6.9c0,2.9-1.2,5.4-3.9,7.3
					c-2.4,2-5.9,3.2-9.8,3.2c-4.2,0-17.4-1.5-23-1.5v11.3c5.1,0,17.9,1.5,23,1.5c5.6,0,10.5-1,14.7-2.7c4.2-1.7,7.6-4.2,9.8-7.6
					c2.4-3.2,3.4-7.3,3.4-12c0-4.2-1-7.8-2.7-11C488.3,79.9,485.8,77.2,483.1,75z"/>
				<polygon class="st0" points="498.6,45.6 519.4,45.6 519.4,114.7 535.3,114.7 535.3,45.6 556.1,45.6 556.1,34.3 498.6,34.3
					"/>
			</g>
		</g>
		<g>
			<g>
				<path class="st0" d="M100.3,34.3H75.8c-0.2,0-0.5,0-0.7,0.2c0.2,0.2,0.2,0.5,0.5,1l12.2,34.3c0.2,1,0.5,2,0.2,2.9
					c0.7-0.2,1.5-1,1.7-2L102,36.5C102.2,35.3,101.3,34.3,100.3,34.3z"/>
				<path class="st0" d="M101.5,112.5L89.3,78.2c-0.2-0.7-1-1.5-1.7-2c0.2,1,0.2,2-0.2,2.9l-12.2,34.3c0,0.2-0.2,0.7-0.5,1
					c0.2,0,0.5,0.2,0.7,0.2H100C101.3,114.7,102.2,113.7,101.5,112.5z"/>
				<path class="st0" d="M58.6,76h24.5c1.2,0,1.7,1,1.5,2.2l-12.2,34.3c-0.5,1.2-1.7,2.2-2.9,2.2H44.9c-1.2,0-1.7-1-1.5-2.2
					l12.2-34.3C56.2,76.9,57.2,76,58.6,76z"/>
				<path class="st0" d="M44.7,34.3h24.7c1.2,0,2.4,1,2.9,2.2l12.2,34.3c0.5,1.2-0.2,2.2-1.5,2.2H58.4c-1.2,0-2.4-1-2.9-2.2
					L43.2,36.5C43,35.3,43.5,34.3,44.7,34.3z"/>
			</g>
			<path class="st0" d="M72.4,140.4c-36.3,0-65.9-29.6-65.9-65.9S36.1,8.6,72.4,8.6s65.9,29.6,65.9,65.9S108.6,140.4,72.4,140.4z
				 M72.4,15c-32.8,0-59.5,26.7-59.5,59.5S39.5,134,72.4,134s59.5-26.7,59.5-59.5S105.2,15,72.4,15z"/>
		</g>
	</g>
</g>
</svg>
