<?xml version="1.0" encoding="utf-8"?>
<!-- Generator: Adobe Illustrator 26.3.1, SVG Export Plug-In . SVG Version: 6.00 Build 0)  -->
<svg version="1.1" id="landscape" xmlns="http://www.w3.org/2000/svg" xmlns:xlink="http://www.w3.org/1999/xlink" x="0px" y="0px"
	 viewBox="0 0 170 170" style="enable-background:new 0 0 170 170;" xml:space="preserve">
<style type="text/css">
	.st0{fill:#fff;}
</style>
<g>
	<g>
		<path class="st0" d="M111,47.2H88c-0.3,0-0.6,0-0.6,0c0.3,0.3,0.3,0.6,0.3,0.9l11.5,32.4c0.3,0.9,0.3,1.8,0.3,2.7
			c0.9-0.3,1.5-0.9,1.8-1.8L112.8,49C112.8,48.1,112.2,47.2,111,47.2z"/>
		<path class="st0" d="M112.5,121L101,88.6c-0.3-0.9-0.9-1.5-1.8-1.8c0.3,0.9,0.3,1.8-0.3,2.7l-11.5,32.4c0,0.3-0.3,0.6-0.3,0.9
			c0.3,0,0.6,0,0.6,0H111C112.2,122.8,112.8,121.9,112.5,121z"/>
		<path class="st0" d="M71.7,86.5H95c1.2,0,1.8,0.9,1.2,2.1L84.7,121c-0.3,1.2-1.5,2.1-2.7,2.1H58.7c-1.2,0-1.8-0.9-1.2-2.1L69,88.6
			C69.6,87.4,70.8,86.5,71.7,86.5z"/>
		<path class="st0" d="M59,47.2h23.3c1.2,0,2.4,0.9,2.7,2.1l11.5,32.4c0.3,1.2-0.3,2.1-1.2,2.1H72c-1.2,0-2.4-0.9-2.7-2.1L57.8,49.3
			C57.2,48.1,57.8,47.2,59,47.2z"/>
	</g>
	<path class="st0" d="M85,148.5c-35.1,0-63.5-28.4-63.5-63.5S49.9,21.5,85,21.5s63.5,28.4,63.5,63.5S120.1,148.5,85,148.5z M85,30.6
		c-29.9,0-54.4,24.5-54.4,54.4s24.5,54.4,54.4,54.4s54.4-24.5,54.4-54.4S114.9,30.6,85,30.6z"/>
</g>
</svg>
