<?xml version="1.0" encoding="utf-8"?>
<!-- Generator: Adobe Illustrator 25.4.1, SVG Export Plug-In . SVG Version: 6.00 Build 0)  -->
<svg version="1.1" id="Ebene_1" xmlns="http://www.w3.org/2000/svg" xmlns:xlink="http://www.w3.org/1999/xlink" x="0px" y="0px"
	 viewBox="0 0 382.7 95.9" style="enable-background:new 0 0 382.7 95.9;" xml:space="preserve">
<style type="text/css">
	.st0{fill:#F7931A;}
	.st1{fill:#FFFFFF;}
	.st2{fill:#9FA8DA;}
	.st3{fill:#7986CB;}
	.st4{fill:#5C6BC0;}
	.st5{fill-rule:evenodd;clip-rule:evenodd;fill:#50AF95;}
	.st6{fill-rule:evenodd;clip-rule:evenodd;fill:#FFFFFF;}
	.st7{fill:#345D9D;}
</style>
<g transform="translate(-289.60744,-317.50471)">
	<path class="st0" d="M383.4,377c-6.2,25-31.6,40.2-56.6,34s-40.2-31.6-34-56.6s31.6-40.2,56.5-34C374.4,326.6,389.6,352,383.4,377
		L383.4,377z"/>
	<path class="st1" d="M358.7,359c0.9-6.2-3.8-9.5-10.3-11.8l2.1-8.4l-5.1-1.3l-2,8.2c-1.3-0.3-2.7-0.7-4.1-1l2.1-8.2l-5.1-1.3
		l-2.1,8.4c-1.1-0.3-2.2-0.5-3.3-0.8l0,0l-7.1-1.8l-1.4,5.5c0,0,3.8,0.9,3.7,0.9c2.1,0.5,2.4,1.9,2.4,3l-2.4,9.6
		c0.1,0,0.3,0.1,0.5,0.2c-0.2,0-0.4-0.1-0.5-0.1l-3.3,13.4c-0.3,0.6-0.9,1.6-2.3,1.2c0.1,0.1-3.7-0.9-3.7-0.9l-2.5,5.9l6.7,1.7
		c1.2,0.3,2.5,0.6,3.7,0.9l-2.1,8.5l5.1,1.3l2.1-8.4c1.4,0.4,2.8,0.7,4.1,1.1l-2.1,8.4l5.1,1.3l2.1-8.5c8.7,1.7,15.3,1,18.1-6.9
		c2.2-6.4-0.1-10-4.7-12.4C355.5,365.8,358,363.6,358.7,359L358.7,359z M347,375.4c-1.6,6.4-12.3,2.9-15.8,2.1l2.8-11.3
		C337.5,367.1,348.6,368.8,347,375.4L347,375.4z M348.6,358.9c-1.4,5.8-10.4,2.8-13.2,2.1l2.5-10.2
		C340.8,351.6,350.1,352.9,348.6,358.9z"/>
</g>
<g id="surface1">
	<path class="st2" d="M114.4,48.2l29.8-46.9L174,48.2l-29.8,17L114.4,48.2z"/>
	<path class="st3" d="M144.2,1.3L174,48.2l-29.8,17V1.3z"/>
	<path class="st2" d="M114.4,54.6l29.8,17l29.8-17l-29.8,40.5L114.4,54.6z"/>
	<path class="st3" d="M144.2,71.6l29.8-17l-29.8,40.5V71.6z"/>
	<path class="st3" d="M114.4,48.2l29.8-12.8L174,48.2l-29.8,17L114.4,48.2z"/>
	<path class="st4" d="M144.2,35.4L174,48.2l-29.8,17V35.4z"/>
</g>
<g>
	<path class="st5" d="M206,11.5l-15.8,33.3c-0.1,0.2-0.1,0.6,0.1,0.7l42.8,41c0.2,0.2,0.6,0.2,1,0l42.8-41c0.2-0.2,0.2-0.5,0.1-0.7
		l-15.8-33.3c-0.1-0.2-0.4-0.4-0.6-0.4h-53.9C206.4,11.1,206.1,11.3,206,11.5L206,11.5z"/>
	<path class="st6" d="M239,48.2L239,48.2c-0.4,0-1.9,0.1-5.5,0.1c-2.9,0-4.9-0.1-5.5-0.1l0,0c-10.9-0.5-19-2.4-19-4.6
		c0-2.3,8.1-4.2,19-4.6v7.4c0.7,0,2.7,0.1,5.6,0.1c3.3,0,5.1-0.1,5.3-0.1v-7.4c10.8,0.5,19,2.4,19,4.6
		C257.9,45.8,249.8,47.7,239,48.2L239,48.2L239,48.2z M239,38.1v-6.7h15.2v-10h-41.3v10.1h15.2v6.7c-12.4,0.6-21.6,3-21.6,5.9
		s9.3,5.3,21.6,5.9v21.3H239V50c12.2-0.6,21.5-3,21.5-5.9S251.3,38.7,239,38.1L239,38.1L239,38.1z M239,38.1L239,38.1z"/>
</g>
<circle class="st1" cx="334.2" cy="48" r="41.8"/>
<path class="st7" d="M333.7,4.2c-24.5,0-44.3,19.8-44.3,44.3s19.8,44.3,44.3,44.3S378,73,378,48.5l0,0l0,0
	c0.1-24.4-19.7-44.3-44.1-44.3c0,0,0,0,0,0H333.7z M334.4,50l-4.6,15.6h24.7c0.7,0,1.3,0.5,1.3,1.2c0,0,0,0,0,0v0.4l-2.1,7.4
	c-0.2,0.7-0.9,1.2-1.6,1.2h-37.8l6.3-21.6l-7.1,2.1l1.6-4.9l7.1-2.1l8.9-30.3c0.2-0.7,0.9-1.2,1.6-1.2h9.6c0.7,0,1.3,0.5,1.3,1.2
	c0,0,0,0,0,0v0.4L336,44.9l7.1-2.1l-1.5,5.2L334.4,50z"/>
</svg>
