<?xml version="1.0" encoding="utf-8"?>
<!-- Generator: Adobe Illustrator 25.4.1, SVG Export Plug-In . SVG Version: 6.00 Build 0)  -->
<svg version="1.1" id="Layer_1" xmlns="http://www.w3.org/2000/svg" xmlns:xlink="http://www.w3.org/1999/xlink" x="0px" y="0px"
	 viewBox="0 0 101.4 88.7" style="enable-background:new 0 0 101.4 88.7;" xml:space="preserve">
<style type="text/css">
	.st0{fill:#2B3D5C;}
</style>
<rect y="30.6" class="st0" width="101.4" height="3.4"/>
<rect x="8.4" y="37.5" class="st0" width="16.7" height="3.4"/>
<rect x="8.4" y="74.9" class="st0" width="16.7" height="3.4"/>
<rect x="11.7" y="44.3" class="st0" width="10.2" height="27.7"/>
<rect x="30.6" y="37.5" class="st0" width="16.7" height="3.4"/>
<rect x="30.6" y="74.9" class="st0" width="16.7" height="3.4"/>
<rect x="33.8" y="44.3" class="st0" width="10.2" height="27.7"/>
<rect x="54.4" y="37.5" class="st0" width="16.7" height="3.4"/>
<rect x="54.4" y="74.9" class="st0" width="16.7" height="3.4"/>
<rect x="57.6" y="44.3" class="st0" width="10.2" height="27.7"/>
<rect x="76.3" y="37.5" class="st0" width="16.7" height="3.4"/>
<rect x="76.3" y="74.9" class="st0" width="16.7" height="3.4"/>
<rect x="79.5" y="44.3" class="st0" width="10.2" height="27.7"/>
<rect y="81.8" class="st0" width="101.4" height="6.9"/>
<path class="st0" d="M50.7,0L0,27.1h101.4L50.7,0z"/>
</svg>
