<?xml version="1.0" encoding="utf-8"?>
<!-- Generator: Adobe Illustrator 18.1.1, SVG Export Plug-In . SVG Version: 6.00 Build 0)  -->
<svg version="1.1" id="Ebene_1" xmlns="http://www.w3.org/2000/svg" xmlns:xlink="http://www.w3.org/1999/xlink" x="0px" y="0px"
	 viewBox="-275 202.3 291 192" enable-background="new -275 202.3 291 192" xml:space="preserve">
<g>
	<g transform="translate(0 32.006)">
		<defs>
			<filter id="Adobe_OpacityMaskFilter" filterUnits="userSpaceOnUse" x="-275" y="202.6" width="289.8" height="126.9">
				<feColorMatrix  type="matrix" values="1 0 0 0 0  0 1 0 0 0  0 0 1 0 0  0 0 0 1 0"/>
			</filter>
		</defs>
		<mask maskUnits="userSpaceOnUse" x="-275" y="202.6" width="289.8" height="126.9" id="b">
			<g filter="url(#Adobe_OpacityMaskFilter)">
				<polygon id="a" fill="#FFFFFF" points="14.8,202.6 14.8,329.6 -275,329.6 -275,202.6 				"/>
			</g>
		</mask>
		<path mask="url(#b)" fill="#F9F9F9" d="M3.7,237.6h-34.9h-49.2c-3.5,0-6.3-2.9-6.3-6.3c0-3.5,2.9-6.3,6.3-6.3h49.2h7.5
			c6.1,0,11.1-5,11.1-11.1c0-6.1-5-11.1-11.1-11.1h-178.6c-6.1,0-11.1,5-11.1,11.1c0,6.1,5,11.1,11.1,11.1h23.5
			c3.5,0,6.3,2.9,6.3,6.3c0,3.5-2.9,6.3-6.3,6.3h-42.8h-42.3c-6.1,0-11.1,5-11.1,11.1c0,6.1,5,11.1,11.1,11.1h42.3h11.1
			c3.5,0,6.3,2.9,6.3,6.3s-2.9,6.3-6.3,6.3h-11.1h-24.9c-6.1,0-11.1,5-11.1,11.1c0,6.1,5,11.1,11.1,11.1h20.1h25.4
			c3.5,0,6.3,2.9,6.3,6.3s-2.9,6.3-3.2,6.3h-19c-6.1,0-11.1,5-11.1,11.1c0,6.1,5,11.1,11.1,11.1h160.4c6.1,0,11.1-5,11.1-11.1
			c0-6.1-5-11.1-11.1-11.1h-11.2c-3.5,0-6.3-2.9-6.3-6.3s2.9-6.3,6.3-6.3H-36h2.2c6.1,0,11.1-5,11.1-11.1c0-6.1-5-11.1-11.1-11.1
			h-18.1c-3.5,0-6.3-2.9-6.3-6.3s2.9-6.3,6.3-6.3h20.6H3.7c6.1,0,11.1-5,11.1-11.1C14.8,242.6,9.8,237.6,3.7,237.6"/>
	</g>
</g>
<g>
	<path fill="#FFFFFF" d="M-142.1,219.1h-3.1c-1.8,0-3.3-1.5-3.3-3.3v-0.5c0-1.8,1.5-3.3,3.3-3.3h3.1c1.8,0,3.3,1.5,3.3,3.3v0.5
		C-138.8,217.6-140.3,219.1-142.1,219.1z"/>
	<path fill="#FFFFFF" d="M-135.6,370.2h-17.3c-2.1,0-3.8,1.7-3.8,3.8v0.6c0,2.1,1.7,3.8,3.8,3.8h17.3c2.1,0,3.8-1.7,3.8-3.8V374
		C-131.7,371.9-133.5,370.2-135.6,370.2z"/>
	<path fill="#FFFFFF" d="M-103.5,232h-28.2c-6.6,0-12,5.4-12,12v35.9c0,6.6,5.4,12,12,12h28.2c6.6,0,12-5.4,12-12V244
		C-91.5,237.4-96.9,232-103.5,232z"/>
	<polygon fill="#FFFFFF" points="-107,234.1 -107,221.4 -53.8,221.4 -64.7,251.4 -52.4,278.6 -95.9,281.9 	"/>
	<g>
		<g>
			<path fill="#C1C7D1" d="M-49.9,276.3l-11.5-25.2l11.5-25.2c0.7-1.6,0.6-3.5-0.4-5.1c-1-1.5-2.6-2.4-4.5-2.4h-53.3
				c-1.4,0-2.6,1.1-2.6,2.6v8.4h-30.5v-6.3c3.2-1.1,5.5-4.1,5.5-7.6c0-4.4-3.6-8-8-8c-4.4,0-8,3.6-8,8c0,3.5,2.3,6.5,5.5,7.6v143.3
				h-5.7c-4.4,0-8,3.6-8,8v5.5c0,1.4,1.1,2.6,2.6,2.6h27.4c1.4,0,2.6-1.1,2.6-2.6v-5.5c0-4.4-3.6-8-8-8h-5.7v-71.6h46.8
				c2.9,0,5.3-2.4,5.3-5.3v-5.7h34.3c1.8,0,3.5-0.9,4.5-2.4C-49.3,279.9-49.2,278-49.9,276.3z M-146.6,215.5c0-1.6,1.3-2.9,2.9-2.9
				c1.6,0,2.9,1.3,2.9,2.9c0,1.6-1.3,2.9-2.9,2.9C-145.3,218.4-146.6,217.1-146.6,215.5z M-135.5,371.5c1.6,0,2.9,1.3,2.9,2.9v2.9
				h-22.3v-2.9c0-1.6,1.3-2.9,2.9-2.9H-135.5L-135.5,371.5z M-105.5,225.8l5.4,3.6h-5.4V225.8z M-94.2,289.5L-94.2,289.5
				c0,0.1-0.1,0.2-0.2,0.2h-35.8v-41.3c0-1.4-1.1-2.6-2.6-2.6c-1.4,0-2.6,1.1-2.6,2.6v41.3h-5.8v-55.2h5.8v2.9
				c0,1.4,1.1,2.6,2.6,2.6c1.4,0,2.6-1.1,2.6-2.6v-2.9h36V289.5z M-54.6,278.6c-0.1,0.1-0.1,0.1-0.1,0.1h-34.3V232
				c0-0.9-0.5-1.7-1.1-2.1v0l-9.4-6.3h44.8c0,0,0.1,0,0.1,0.1c0.1,0.1,0,0.1,0,0.2l-11.9,26.3c-0.3,0.7-0.3,1.4,0,2.1l11.9,26.3
				C-54.6,278.5-54.6,278.6-54.6,278.6z"/>
		</g>
	</g>
</g>
</svg>
