<?xml version="1.0" encoding="utf-8"?>
<!-- Generator: Adobe Illustrator 18.1.1, SVG Export Plug-In . SVG Version: 6.00 Build 0)  -->
<svg version="1.1" id="Ebene_1" xmlns="http://www.w3.org/2000/svg" xmlns:xlink="http://www.w3.org/1999/xlink" x="0px" y="0px"
	 viewBox="-275 202.3 291 192" enable-background="new -275 202.3 291 192" xml:space="preserve">
<g>
	<g transform="translate(0 32.006)">
		<defs>
			<filter id="Adobe_OpacityMaskFilter" filterUnits="userSpaceOnUse" x="-275" y="202.6" width="289.8" height="126.9">
				<feColorMatrix  type="matrix" values="1 0 0 0 0  0 1 0 0 0  0 0 1 0 0  0 0 0 1 0"/>
			</filter>
		</defs>
		<mask maskUnits="userSpaceOnUse" x="-275" y="202.6" width="289.8" height="126.9" id="b">
			<g filter="url(#Adobe_OpacityMaskFilter)">
				<polygon id="a" fill="#FFFFFF" points="14.8,202.6 14.8,329.6 -275,329.6 -275,202.6 				"/>
			</g>
		</mask>
		<path mask="url(#b)" fill="#F9F9F9" d="M3.7,237.6h-34.9h-49.2c-3.5,0-6.3-2.9-6.3-6.3c0-3.5,2.9-6.3,6.3-6.3h49.2h7.5
			c6.1,0,11.1-5,11.1-11.1c0-6.1-5-11.1-11.1-11.1h-178.6c-6.1,0-11.1,5-11.1,11.1c0,6.1,5,11.1,11.1,11.1h23.5
			c3.5,0,6.3,2.9,6.3,6.3c0,3.5-2.9,6.3-6.3,6.3h-42.8h-42.3c-6.1,0-11.1,5-11.1,11.1c0,6.1,5,11.1,11.1,11.1h42.3h11.1
			c3.5,0,6.3,2.9,6.3,6.3s-2.9,6.3-6.3,6.3h-11.1h-24.9c-6.1,0-11.1,5-11.1,11.1c0,6.1,5,11.1,11.1,11.1h20.1h25.4
			c3.5,0,6.3,2.9,6.3,6.3s-2.9,6.3-3.2,6.3h-19c-6.1,0-11.1,5-11.1,11.1c0,6.1,5,11.1,11.1,11.1h160.4c6.1,0,11.1-5,11.1-11.1
			c0-6.1-5-11.1-11.1-11.1h-11.2c-3.5,0-6.3-2.9-6.3-6.3s2.9-6.3,6.3-6.3H-36h2.2c6.1,0,11.1-5,11.1-11.1c0-6.1-5-11.1-11.1-11.1
			h-18.1c-3.5,0-6.3-2.9-6.3-6.3s2.9-6.3,6.3-6.3h20.6H3.7c6.1,0,11.1-5,11.1-11.1C14.8,242.6,9.8,237.6,3.7,237.6"/>
	</g>
</g>
<g>
	<path fill="#FFFFFF" d="M-169.9,262.4c2.1-7.3,10.9-21.7,13.8-30.2c0.5-1.6,1.4-4.5,0-6.6c-1-1.4-2.4-1.4-2.4-2
		c0-1.5,8.6-2.9,16.2-3.6c6-0.6,8.7-0.4,9.6-2.2c1.3-2.4-2.3-5.3-0.7-8.6c0.8-1.6,2.7-3.2,4.6-2.9c2.5,0.3,4.2,3.5,3.6,5.6
		c-0.4,1.7-2.2,2.1-2.2,3.5c0.1,1.4,2.1,2.4,3.3,2.9c9,3.8,20.2-0.3,22.8,3.6c0.1,0.2,1,1.6,0.5,2.7c-0.5,1-1.7,0.9-2.4,1.5
		c-2.9,2.4,5.4,17.6,6.6,19.9c6.5,11.8,8.4,13.6,7.6,16.9c-1.3,5.3-8.4,8.3-13.7,8.7c-6.8,0.6-14.7-3.2-15.1-7.5
		c-0.1-1.2,0.4-2.2,1.1-3.3c2.7-4.7,4.6-9.9,7.1-14.7c4.2-8.2,5-11,5.5-13.5c0.3-1.8,1.2-6.9-0.9-8.2c-1-0.6-2.3-0.1-3.1,0.2
		c-7.9,2.6-14.6-3.1-17.8-0.2c-1.2,1.1-0.8,2.4-0.7,8.6c0.1,14.7-2.4,16.9,0,22.6c0.6,1.4,1.6,3.3,1.8,6.2c0.2,2.4-0.3,3.4-0.7,6.7
		c-0.9,6.1-1.3,9.2,0.4,10.9c1.3,1.4,2.4,0.4,7.1,2.4c2.1,0.9,4.4,1.9,4.4,3.3c0,1.1-1.5,2-1.8,2.2c-1.8,1-3.8,0.5-4.4,0.4
		c-8.3-1.9-17,0.2-25.5,0c0,0,0.2-2.8,0.7-4c1.4-3,6.7-0.9,9.5-3.6c2.7-2.7-0.5-6.5,0.7-15.7c0.7-5.2,1.8-4.9,2.4-10.2
		c0.6-6-0.8-6.6-0.7-13.5c0.1-9,2.6-13.2,0.2-15.3c-1.1-0.9-2.1-0.6-6-0.5c-11,0.3-13.4-1.7-15.3,0.2c-2.9,2.9,0.1,10.3,1.8,14.6
		c3.1,7.6,7.2,11.6,10,21.3c0.6,1.9,0.8,3.3,0.4,4.7c-1.6,5.1-10.7,7.3-17.7,6c-4.1-0.8-10.2-3.3-10.7-7.3
		C-170.2,263.5-170,262.7-169.9,262.4z"/>
	<path fill="#C1C7D1" d="M-87.4,263C-87.4,263-87.4,263-87.4,263C-87.4,263-87.4,263-87.4,263c0-0.1,0-0.1,0-0.2c0,0,0,0,0,0
		c0,0,0-0.1,0-0.1c0,0,0,0,0-0.1c0,0,0,0,0-0.1c0,0,0,0,0-0.1c0,0,0,0,0,0c0,0,0-0.1,0-0.1c0,0,0,0,0,0l-14.4-31.7v-4.2h0.1
		c1.6,0,2.8-1.3,2.8-2.8v-0.2c0-1.4-1-2.6-2.4-2.8l-23.8-3.8v-2.4c0.9-1,1.5-2.3,1.5-3.8c0-3.2-2.6-5.7-5.7-5.7s-5.7,2.6-5.7,5.7
		c0,1.5,0.6,2.8,1.5,3.8v2.3l-23.8,4c-1.4,0.2-2.4,1.4-2.4,2.8v0.2c0,1.6,1.3,2.8,2.8,2.8h0.1v4.2l-14.4,31.7c0,0,0,0,0,0
		c0,0,0,0.1,0,0.1c0,0,0,0,0,0c0,0,0,0,0,0.1c0,0,0,0,0,0.1c0,0,0,0,0,0.1c0,0,0,0.1,0,0.1c0,0,0,0,0,0c0,0,0,0.1,0,0.1c0,0,0,0,0,0
		c0,0,0,0,0,0.1c0,0,0,0,0,0c0.1,5.6,7,10,15.9,10s15.8-4.4,15.9-10c0,0,0,0,0,0c0,0,0,0,0-0.1c0,0,0,0,0,0c0,0,0-0.1,0-0.1
		c0,0,0,0,0,0c0,0,0-0.1,0-0.1c0,0,0,0,0-0.1c0,0,0,0,0-0.1c0,0,0,0,0-0.1c0,0,0,0,0,0c0,0,0-0.1,0-0.1c0,0,0,0,0,0l-14.4-31.7v-4.2
		h20.5v29.6c-0.9,0.5-1.5,1.4-1.5,2.5v20.1l-8.6,2.7c-1.8,0.6-3,2.2-3,4.1v2.2c0,0.8,0.6,1.4,1.4,1.4h32c0.8,0,1.4-0.6,1.4-1.4v-2.2
		c0-1.9-1.2-3.5-3-4.1l-8.6-2.7v-20.1c0-1.1-0.6-2-1.5-2.5v-29.6h20.5v4.2l-14.4,31.7c0,0,0,0,0,0c0,0,0,0.1,0,0.1c0,0,0,0,0,0
		c0,0,0,0,0,0.1c0,0,0,0,0,0.1c0,0,0,0,0,0.1c0,0,0,0.1,0,0.1c0,0,0,0,0,0c0,0,0,0.1,0,0.1c0,0,0,0,0,0c0,0,0,0,0,0.1c0,0,0,0,0,0
		c0.1,5.6,7,10,15.9,10S-87.5,268.7-87.4,263C-87.4,263.1-87.4,263.1-87.4,263z M-155.7,234.3l12.4,27.3h-24.8L-155.7,234.3z
		 M-155.7,270.3c-6.3,0-11.8-2.6-12.9-6h25.9C-143.9,267.7-149.4,270.3-155.7,270.3z M-126.5,258.6v19.7h-6v-19.7
		c0-0.1,0-0.1,0.1-0.1L-126.5,258.6C-126.5,258.5-126.5,258.6-126.5,258.6z M-131,255.8v-39.7c0.5,0.1,1,0.2,1.5,0.2
		s1.1-0.1,1.5-0.2v39.7H-131z M-129.5,207.6c1.7,0,3,1.3,3,3c0,1.7-1.3,3-3,3c-1.7,0-3-1.3-3-3C-132.5,209-131.2,207.6-129.5,207.6z
		 M-157.1,223.8C-157.2,223.8-157.2,223.8-157.1,223.8l-0.1-0.3c0,0,0-0.1,0.1-0.1l23.4-3.9v4.3H-157.1z M-114.9,285.5v0.9h-29.3
		v-0.9c0-0.7,0.4-1.3,1.1-1.5l9.4-2.9h8.3l9.4,2.9C-115.3,284.2-114.9,284.8-114.9,285.5z M-125.2,219.6l23.4,3.8c0,0,0.1,0,0.1,0.1
		v0.2c0,0.1,0,0.1-0.1,0.1h-23.4V219.6z M-103.3,234.3l12.4,27.3h-24.8L-103.3,234.3z M-103.3,270.3c-6.3,0-11.8-2.6-12.9-6h25.9
		C-91.6,267.7-97,270.3-103.3,270.3z"/>
</g>
<g>
	<path fill="#FFFFFF" d="M-91.3,388.3c4.1,0.6,68.3-1.1,72.4,0c0.2,0,0.9,0.3,1.3-0.1c0.9-0.7-0.2-3.5-0.3-4
		c-2.7-7.5,6.8-27.8-1-39.9c-3.2-5.1-8-7.5-8-7.5c-4.9-2.5-9.7-2.1-11.6-5.9c-0.4-0.8-1-2-0.6-3.1c1.3-3.2,9.7-0.6,12.8-4.8
		c1.1-1.5,1.1-3.3,1-5.2c-0.4-12.3-2.3-24.4-2.7-26.8c-1.9-12.3-0.4-11.4-2-15.2c-2.8-6.4-8.9-13-17.7-15.6
		c-2.4-0.7-10.7-2.7-19.5,1.7c-8.1,4.1-11.5,11.2-12.4,13.2c-1.8,4-2.1,7.5-2.6,14.6c-0.9,12.5,1.4,13.6-0.6,20.5
		c-1.7,5.8-4.5,8.8-2.9,11.3c0.5,0.8,1.2,1.1,7.3,3c6.2,1.9,7.9,2.3,8.1,3.4c0.3,1.4-2,3.1-3.8,4.4c-6.4,4.4-10.1,3.5-13.6,6.6
		c-2.7,2.3-3.4,5.4-4.5,10.1c-2.1,9.2-0.3,18.8,0.9,25.1c0,0,1.8,9.9-0.6,12.8c-0.1,0.1-0.6,0.7-0.4,1.1
		C-92.1,388.2-91.5,388.3-91.3,388.3z"/>
	<g>
		<g>
			<g>
				<path fill="#C1C7D1" d="M-6.7,386.6h-9.6l1-37.8c0.2-5.9-3.2-11.3-8.6-13.7l-11.2-5c-0.1,0-0.1-0.1-0.2-0.1l-1.6-1.3
					c8-2.4,13.9-5.4,14.2-5.5c1-0.5,1.4-1.7,0.9-2.6c0-0.1-4-8.3-4-26.4v-8.4c0-16.1-13.1-29.2-29.2-29.2s-29.2,13.1-29.2,29.2v8.4
					c0,18.1-4,26.3-4,26.4c-0.5,1-0.1,2.1,0.9,2.6c0.3,0.1,6.2,3.1,14.2,5.5l-1.8,1.5l-10.9,4.9c-5.4,2.4-8.8,7.8-8.6,13.7l1,37.8
					h-9.8c-1.1,0-2,0.9-2,2s0.9,2,2,2h96.5c1.1,0,2-0.9,2-2S-5.6,386.6-6.7,386.6z M-80.2,285.8c0-14,11.4-25.3,25.3-25.3
					s25.3,11.4,25.3,25.3v8.4c0,14.3,2.4,22.8,3.6,26.3c-2.6,1.2-8.1,3.5-14.4,5.2l-0.7-0.6c-0.4-0.3-0.9-0.5-1.4-0.5v-4.9
					c3.7-2.4,6.7-5.8,8.5-10c1.1-2.4,1.7-5.2,1.8-7.9c0.2-8.9-7.4-11.1-15.4-13.5c-6.7-2-14.4-4.2-20.6-10.3c-0.8-0.8-2-0.7-2.8,0
					c-0.8,0.8-0.7,2,0,2.8c7,6.8,15.4,9.3,22.3,11.3c8.6,2.5,12.7,4,12.6,9.6c-0.1,2.2-0.5,4.4-1.4,6.4c-3,6.9-9.9,11.3-17.4,11.3
					c-9.2,0-17-6.5-18.7-15.6c-0.4-2-2.2-3.5-4.2-3.3c-0.2,0-0.4,0-0.7-0.1c-1-0.2-1.7-1.3-1.7-2.4v-1.6c0-1.2,0.8-2.2,1.8-2.4
					c0.9-0.1,1.7,0.2,2.2,0.8c0.4,0.5,0.9,0.8,1.4,1c0.8,0.3,1.8,0.1,2.5-0.4c1.7-1.2,3.2-2.7,4.3-4.6c0.6-0.9,0.3-2.1-0.6-2.7
					c-0.9-0.6-2.1-0.3-2.7,0.6c-0.7,1.1-1.5,2.1-2.5,2.9c-1.4-1.3-3.3-1.9-5.3-1.5c-0.4,0.1-0.8,0.2-1.1,0.3L-80.2,285.8
					L-80.2,285.8z M-63.4,328.9v-7.1c2.6,1.1,5.5,1.6,8.5,1.6c3,0,5.9-0.6,8.5-1.7v7.1l-5.9,8.2c0,0,0,0,0,0c0,0,0,0,0,0l-2.4,3.7
					c0,0,0,0.1-0.1,0.1s-0.1,0-0.1-0.1l-2.4-3.7c0,0,0,0,0,0c0,0,0,0,0,0L-63.4,328.9z M-61.8,337.8l-2.8,2.1
					c-0.5,0.4-1.2,0.5-1.9,0.4c-0.6-0.2-1.2-0.6-1.5-1.2l-3.4-6.7l3.5-3L-61.8,337.8z M-42,329.5l3.5,3l-3.4,6.7
					c-0.3,0.6-0.8,1-1.5,1.2c-0.6,0.2-1.3,0-1.9-0.4l-2.8-2.1L-42,329.5z M-83.8,320.5c0.9-2.6,2.5-8,3.2-16.5
					c0.4,0.2,0.8,0.3,1.2,0.4c0.6,0.1,1.2,0.2,1.8,0.2c0,0,0.1,0.1,0.1,0.1c1.2,6.4,4.9,11.8,10.1,15.1v4.9c-0.5,0-1,0.1-1.4,0.5
					l-0.7,0.6C-75.8,324-81.2,321.7-83.8,320.5z M-84.2,338.7l9.5-4.2l3.2,6.4c0.8,1.6,2.3,2.8,4.1,3.2c0.5,0.1,0.9,0.2,1.4,0.2
					c1.3,0,2.6-0.4,3.7-1.2l2.7-2l1.3,1.9c0.8,1.1,2,1.8,3.4,1.8c1.4,0,2.6-0.7,3.4-1.8l1.3-1.9l2.7,2c1.1,0.8,2.4,1.2,3.7,1.2
					c0.5,0,0.9-0.1,1.4-0.2c1.8-0.4,3.3-1.6,4.1-3.2l3.2-6.5l9.6,4.3c0.8,0.3,1.5,0.8,2.1,1.2l-7.1,8.9h-48.7l-7.1-8.9
					C-85.6,339.5-84.9,339-84.2,338.7z M-86,355.4l1.6,29.4c0,0.7,0.2,1.3,0.4,1.9h-5.5l-1-37.9c-0.1-2.1,0.5-4.1,1.5-5.8l5.6,7
					c-0.4,0.2-0.7,0.5-1,0.9C-85.5,352-86.1,353.7-86,355.4z M-27.7,355.1l-1.6,29.4c-0.1,1.2-1,2.1-2.2,2.1h-46.6v0
					c-1.2,0-2.2-0.9-2.2-2.1l-1.6-29.4c0-0.6,0.2-1.2,0.6-1.7c0.4-0.5,1-0.7,1.6-0.7H-30c0.6,0,1.2,0.2,1.6,0.7
					C-27.9,353.9-27.7,354.5-27.7,355.1z M-20.2,386.6h-5.7c0.2-0.6,0.4-1.2,0.4-1.9l1.6-29.4c0.1-1.7-0.5-3.3-1.7-4.6
					c-0.3-0.3-0.6-0.5-0.9-0.8l5.7-7.1c1,1.7,1.6,3.7,1.5,5.8L-20.2,386.6z"/>
			</g>
		</g>
		<g>
			<g>
				<path fill="#C1C7D1" d="M-54.9,363.5c-4,0-7.2,3.2-7.2,7.2c0,4,3.2,7.2,7.2,7.2c4,0,7.2-3.2,7.2-7.2
					C-47.7,366.8-50.9,363.5-54.9,363.5z M-54.9,374c-1.8,0-3.3-1.5-3.3-3.3c0-1.8,1.5-3.3,3.3-3.3c1.8,0,3.3,1.5,3.3,3.3
					C-51.6,372.6-53.1,374-54.9,374z"/>
			</g>
		</g>
	</g>
</g>
<g>
	<polygon fill="#FFFFFF" points="-182.5,367.1 -182.5,272.1 -196.8,270.3 -234.5,270.3 -252.8,288.6 -252.8,367.1 -251,369 
		-183.7,369 	"/>
	<g>
		<path fill="#C1C7D1" d="M-185.4,268.9H-235c0,0,0,0-0.1,0c0,0,0,0-0.1,0c-0.1,0-0.1,0-0.2,0c0,0,0,0,0,0c-0.1,0-0.1,0-0.2,0.1
			c0,0,0,0,0,0c-0.1,0-0.1,0.1-0.2,0.1c0,0,0,0,0,0c-0.1,0-0.1,0.1-0.2,0.1c0,0,0,0,0,0c-0.1,0-0.1,0.1-0.2,0.1c0,0,0,0,0,0
			l-17.7,17.7c0,0,0,0,0,0c-0.1,0.1-0.1,0.1-0.1,0.2c0,0,0,0,0,0c0,0.1-0.1,0.1-0.1,0.2c0,0,0,0,0,0c0,0.1-0.1,0.1-0.1,0.2
			c0,0,0,0,0,0c0,0.1,0,0.1-0.1,0.2c0,0,0,0,0,0c0,0.1,0,0.1,0,0.2c0,0,0,0,0,0.1c0,0,0,0,0,0.1v77.9c0,2.9,2.3,5.2,5.2,5.2h63.8
			c2.9,0,5.2-2.3,5.2-5.2v-92.1C-180.2,271.2-182.5,268.9-185.4,268.9z M-236.7,274.6v10.2c0,1-0.8,1.9-1.9,1.9h-10.2L-236.7,274.6z
			 M-183.5,366.2c0,1-0.8,1.9-1.9,1.9h-63.8c-1,0-1.9-0.8-1.9-1.9v-76.3h12.5c2.9,0,5.2-2.3,5.2-5.2v-12.5h47.9c1,0,1.9,0.8,1.9,1.9
			V366.2z"/>
		<path fill="#C1C7D1" d="M-238.5,297h42.5c0.9,0,1.7-0.7,1.7-1.7s-0.7-1.7-1.7-1.7h-42.5c-0.9,0-1.7,0.7-1.7,1.7
			S-239.5,297-238.5,297z"/>
		<path fill="#C1C7D1" d="M-238.5,305.9h42.5c0.9,0,1.7-0.7,1.7-1.7s-0.7-1.7-1.7-1.7h-42.5c-0.9,0-1.7,0.7-1.7,1.7
			S-239.5,305.9-238.5,305.9z"/>
		<path fill="#C1C7D1" d="M-238.5,314.7h42.5c0.9,0,1.7-0.7,1.7-1.7s-0.7-1.7-1.7-1.7h-42.5c-0.9,0-1.7,0.7-1.7,1.7
			S-239.5,314.7-238.5,314.7z"/>
		<path fill="#C1C7D1" d="M-238.5,323.6h42.5c0.9,0,1.7-0.7,1.7-1.7s-0.7-1.7-1.7-1.7h-42.5c-0.9,0-1.7,0.7-1.7,1.7
			S-239.5,323.6-238.5,323.6z"/>
		<path fill="#C1C7D1" d="M-238.5,332.4h42.5c0.9,0,1.7-0.7,1.7-1.7s-0.7-1.7-1.7-1.7h-42.5c-0.9,0-1.7,0.7-1.7,1.7
			S-239.5,332.4-238.5,332.4z"/>
		<path fill="#C1C7D1" d="M-217.3,341.5h-21.3c-0.9,0-1.7,0.7-1.7,1.7s0.7,1.7,1.7,1.7h21.3c0.9,0,1.7-0.7,1.7-1.7
			S-216.4,341.5-217.3,341.5z"/>
		<path fill="#C1C7D1" d="M-217.3,350.3h-21.3c-0.9,0-1.7,0.7-1.7,1.7s0.7,1.7,1.7,1.7h21.3c0.9,0,1.7-0.7,1.7-1.7
			S-216.4,350.3-217.3,350.3z"/>
		<path fill="#C1C7D1" d="M-202.2,345c-1.4,0-2.5,1.1-2.5,2.5s1.1,2.5,2.5,2.5c1.4,0,2.5-1.1,2.5-2.5S-200.8,345-202.2,345z"/>
		<path fill="#C1C7D1" d="M-202.2,337.9c-5.3,0-9.6,4.3-9.6,9.6s4.3,9.6,9.6,9.6s9.6-4.3,9.6-9.6S-196.9,337.9-202.2,337.9z
			 M-202.2,353.9c-3.5,0-6.3-2.8-6.3-6.3s2.8-6.3,6.3-6.3c3.5,0,6.3,2.8,6.3,6.3S-198.8,353.9-202.2,353.9z"/>
	</g>
</g>
</svg>
