<?xml version="1.0" encoding="utf-8"?>
<!-- Generator: Adobe Illustrator 18.1.1, SVG Export Plug-In . SVG Version: 6.00 Build 0)  -->
<svg version="1.1" id="Ebene_1" xmlns="http://www.w3.org/2000/svg" xmlns:xlink="http://www.w3.org/1999/xlink" x="0px" y="0px"
	 viewBox="-275 202.3 291 192" enable-background="new -275 202.3 291 192" xml:space="preserve">
<g>
	<g transform="translate(0 32.006)">
		<defs>
			<filter id="Adobe_OpacityMaskFilter" filterUnits="userSpaceOnUse" x="-275" y="202.6" width="289.8" height="126.9">
				<feColorMatrix  type="matrix" values="1 0 0 0 0  0 1 0 0 0  0 0 1 0 0  0 0 0 1 0"/>
			</filter>
		</defs>
		<mask maskUnits="userSpaceOnUse" x="-275" y="202.6" width="289.8" height="126.9" id="b">
			<g filter="url(#Adobe_OpacityMaskFilter)">
				<polygon id="a" fill="#FFFFFF" points="14.8,202.6 14.8,329.6 -275,329.6 -275,202.6 				"/>
			</g>
		</mask>
		<path mask="url(#b)" fill="#F9F9F9" d="M3.7,237.6h-34.9h-49.2c-3.5,0-6.3-2.9-6.3-6.3c0-3.5,2.9-6.3,6.3-6.3h49.2h7.5
			c6.1,0,11.1-5,11.1-11.1c0-6.1-5-11.1-11.1-11.1h-178.6c-6.1,0-11.1,5-11.1,11.1c0,6.1,5,11.1,11.1,11.1h23.5
			c3.5,0,6.3,2.9,6.3,6.3c0,3.5-2.9,6.3-6.3,6.3h-42.8h-42.3c-6.1,0-11.1,5-11.1,11.1c0,6.1,5,11.1,11.1,11.1h42.3h11.1
			c3.5,0,6.3,2.9,6.3,6.3s-2.9,6.3-6.3,6.3h-11.1h-24.9c-6.1,0-11.1,5-11.1,11.1c0,6.1,5,11.1,11.1,11.1h20.1h25.4
			c3.5,0,6.3,2.9,6.3,6.3s-2.9,6.3-3.2,6.3h-19c-6.1,0-11.1,5-11.1,11.1c0,6.1,5,11.1,11.1,11.1h160.4c6.1,0,11.1-5,11.1-11.1
			c0-6.1-5-11.1-11.1-11.1h-11.2c-3.5,0-6.3-2.9-6.3-6.3s2.9-6.3,6.3-6.3H-36h2.2c6.1,0,11.1-5,11.1-11.1c0-6.1-5-11.1-11.1-11.1
			h-18.1c-3.5,0-6.3-2.9-6.3-6.3s2.9-6.3,6.3-6.3h20.6H3.7c6.1,0,11.1-5,11.1-11.1C14.8,242.6,9.8,237.6,3.7,237.6"/>
	</g>
</g>
<g>
	<path fill="#FFFFFF" d="M-66.4,386.2h-104.7c-6.6,0-12-5.4-12-12v-62.7c0-6.6,5.4-12,12-12h104.7c6.6,0,12,5.4,12,12v62.7
		C-54.4,380.8-59.8,386.2-66.4,386.2z"/>
	<path fill="#FFFFFF" d="M-111.6,279.4h-14.2c-2,0-3.7-1.7-3.7-3.7l0,0c0-2,1.7-3.7,3.7-3.7h14.2c2,0,3.7,1.7,3.7,3.7l0,0
		C-107.9,277.8-109.5,279.4-111.6,279.4z"/>
	<path fill="#FFFFFF" d="M-119,301L-119,301c-2.6,0-4.7-2.1-4.7-4.7v-13.4c0-2.6,2.1-4.7,4.7-4.7h0c2.6,0,4.7,2.1,4.7,4.7v13.4
		C-114.3,298.9-116.4,301-119,301z"/>
	<g>
		<g>
			<g>
				<path fill="#C1C7D1" d="M-63.7,298.6h-48.9l1.7-16.9c2.5-0.8,4.2-3,4.2-5.7c0-3.3-2.7-6-6-6H-125c-3.3,0-6,2.7-6,6
					c0,2.7,1.8,5,4.2,5.7l1.7,16.9H-174c-5.6,0-10.1,4.5-10.1,10.1v69.4c0,5.6,4.5,10.1,10.1,10.1h110.3c5.6,0,10.1-4.5,10.1-10.1
					v-69.4C-53.6,303.1-58.2,298.6-63.7,298.6z M-127.2,276c0-1.2,1-2.2,2.2-2.2h12.3c1.2,0,2.2,1,2.2,2.2c0,1.2-1,2.2-2.2,2.2
					c0,0,0,0,0,0H-125c0,0,0,0,0,0h0C-126.2,278.1-127.2,277.2-127.2,276z M-114.9,282l-1.7,16.6h-4.7l-1.7-16.6
					C-122.9,282-114.9,282-114.9,282z M-63.7,384.3H-174c-3.5,0-6.3-2.8-6.3-6.3v-69.4c0-3.5,2.8-6.3,6.3-6.3h110.3
					c3.5,0,6.3,2.8,6.3,6.3v69.4h0C-57.5,381.5-60.3,384.3-63.7,384.3z"/>
			</g>
		</g>
		<g>
			<g>
				<path fill="#C1C7D1" d="M-114.8,306.7h-8.2c-1.1,0-1.9,0.9-1.9,1.9s0.9,1.9,1.9,1.9h8.2c1.1,0,1.9-0.9,1.9-1.9
					S-113.7,306.7-114.8,306.7z"/>
			</g>
		</g>
		<g>
			<g>
				<path fill="#C1C7D1" d="M-67.8,319h-32.7c-1.1,0-1.9,0.9-1.9,1.9s0.9,1.9,1.9,1.9h32.7c1.1,0,1.9-0.9,1.9-1.9
					C-65.9,319.8-66.8,319-67.8,319z"/>
			</g>
		</g>
		<g>
			<g>
				<path fill="#C1C7D1" d="M-76,343.5h-24.5c-1.1,0-1.9,0.9-1.9,1.9s0.9,1.9,1.9,1.9H-76c1.1,0,1.9-0.9,1.9-1.9
					S-74.9,343.5-76,343.5z"/>
			</g>
		</g>
		<g>
			<g>
				<path fill="#C1C7D1" d="M-76,363.9h-24.5c-1.1,0-1.9,0.9-1.9,1.9s0.9,1.9,1.9,1.9H-76c1.1,0,1.9-0.9,1.9-1.9
					S-74.9,363.9-76,363.9z"/>
			</g>
		</g>
		<g>
			<g>
				<path fill="#C1C7D1" d="M-76,353.7h-24.5c-1.1,0-1.9,0.9-1.9,1.9s0.9,1.9,1.9,1.9H-76c1.1,0,1.9-0.9,1.9-1.9
					S-74.9,353.7-76,353.7z"/>
			</g>
		</g>
		<g>
			<g>
				<path fill="#C1C7D1" d="M-88.2,329.2h-12.3c-1.1,0-1.9,0.9-1.9,1.9s0.9,1.9,1.9,1.9h12.3c1.1,0,1.9-0.9,1.9-1.9
					S-87.2,329.2-88.2,329.2z"/>
			</g>
		</g>
		<g>
			<g>
				<path fill="#C1C7D1" d="M-76,329.2h-4.1c-1.1,0-1.9,0.9-1.9,1.9s0.9,1.9,1.9,1.9h4.1c1.1,0,1.9-0.9,1.9-1.9
					S-74.9,329.2-76,329.2z"/>
			</g>
		</g>
		<g>
			<g>
				<path fill="#C1C7D1" d="M-126.1,319c-0.9-0.5-2.1-0.2-2.6,0.7c-0.5,0.9-0.2,2.1,0.7,2.6c8.2,4.8,13.3,13.6,13.3,23.1
					c0,6.9-2.6,13.1-6.9,17.9l-10.7-6.1c-0.7-0.4-1.1-1.1-1.1-1.9v-4.4c3.7-2.6,6.1-6.8,6.1-11.7v-4.1c0-5-2.6-9.4-6.5-11.9
					c0.2-0.8,0.4-1.6,0.4-2.4c0-4.4-3.6-8-8-8s-8,3.6-8,8c0,0.8,0.1,1.6,0.4,2.4c-3.9,2.5-6.5,6.9-6.5,11.9v4.1
					c0,4.8,2.4,9.1,6.1,11.7v4.4c0,0.8-0.4,1.5-1.1,1.9l-10.7,6.1c-4.3-4.7-6.9-11-6.9-17.9c0-9.5,5.1-18.4,13.3-23.1
					c0.9-0.5,1.2-1.7,0.7-2.6s-1.7-1.2-2.6-0.7c-9.4,5.4-15.3,15.6-15.3,26.4c0,16.8,13.7,30.5,30.5,30.5s30.5-13.7,30.5-30.5
					C-110.8,334.6-116.7,324.4-126.1,319z M-141.3,316.7c2.3,0,4.2,1.9,4.2,4.2c0,0.3,0,0.5-0.1,0.8c-1.3-0.4-2.7-0.6-4.1-0.6
					c-1.4,0-2.8,0.2-4.1,0.6c0-0.2-0.1-0.5-0.1-0.8C-145.6,318.6-143.7,316.7-141.3,316.7z M-141.3,324.8c5.7,0,10.3,4.6,10.3,10.3
					v0.7c-8,2.4-12.7-3.6-12.9-3.9c-0.3-0.4-0.8-0.7-1.4-0.8c-0.6,0-1.1,0.2-1.5,0.6c-1.8,1.8-3.6,2.7-4.9,3.1
					C-151.5,329.3-147,324.8-141.3,324.8z M-151.7,339.3v-0.4c1.5-0.4,3.8-1.2,6.1-3.1c0.8,0.8,2,1.8,3.5,2.6c1.8,1,4.3,1.9,7.3,1.9
					c1.2,0,2.4-0.1,3.7-0.4c-0.3,5.4-4.8,9.8-10.3,9.8C-147,349.6-151.7,345-151.7,339.3z M-148.6,360.5c1.9-1.1,3-3.1,3-5.2v-2.5
					c1.3,0.4,2.7,0.6,4.2,0.6s2.9-0.2,4.2-0.6v2.5c0,2.1,1.2,4.1,3,5.2l1.8,1c-2.8,1.6-5.8,2.4-9.1,2.4c-3.2,0-6.3-0.8-9.1-2.4
					L-148.6,360.5z M-141.3,372.1c-6.4,0-12.3-2.3-16.9-6.1l4.1-2.3c3.8,2.7,8.2,4.1,12.8,4.1c4.6,0,9.1-1.4,12.8-4l4.1,2.3
					C-129,369.8-134.9,372.1-141.3,372.1z"/>
			</g>
		</g>
	</g>
</g>
<g>
	<circle fill="#FFFFFF" cx="-39.7" cy="260.8" r="32.4"/>
	<ellipse fill="#FFFFFF" cx="-39.2" cy="216.1" rx="6.7" ry="6.3"/>
	<path fill="#FFFFFF" d="M-39.6,219.6H-40c-0.8,0-1.5,0.7-1.5,1.5v5.7c0,0.8,0.7,1.5,1.5,1.5h0.4c0.8,0,1.5-0.7,1.5-1.5v-5.7
		C-38,220.3-38.7,219.6-39.6,219.6z"/>
	<path fill="#FFFFFF" d="M-64.7,232H-66c-1.7,0-3.1-1.4-3.1-3.1v-0.8c0-1.7,1.4-3.1,3.1-3.1h1.4c1.7,0,3.1,1.4,3.1,3.1v0.8
		C-61.5,230.5-63,232-64.7,232z"/>
	<path fill="#FFFFFF" d="M-13,232h-1.4c-1.7,0-3.1-1.4-3.1-3.1v-0.8c0-1.7,1.4-3.1,3.1-3.1h1.4c1.7,0,3.1,1.4,3.1,3.1v0.8
		C-9.9,230.5-11.3,232-13,232z"/>
	<g>
		<g>
			<g>
				<path fill="#C1C7D1" d="M-17.5,235.2l2.2-2.7l1.1,0.9c0.5,0.4,1,0.6,1.6,0.6c0.1,0,0.2,0,0.3,0c0.7-0.1,1.3-0.4,1.8-1l1.7-2.1
					c0.4-0.6,0.6-1.2,0.6-1.9c-0.1-0.7-0.4-1.3-1-1.8l-4.3-3.4c-1.1-0.9-2.8-0.7-3.7,0.4l-1.7,2.1c-0.4,0.6-0.6,1.2-0.6,1.9
					c0.1,0.7,0.4,1.3,1,1.8l1.1,0.9l-2.2,2.7c-4.6-3.3-10.1-5.6-16-6.3v-4.2c2.5-1.4,4.1-4.1,4.1-7c0-4.5-3.6-8.1-8.1-8.1
					s-8.1,3.6-8.1,8.1c0,2.9,1.6,5.6,4.1,7v4.2c-5.9,0.7-11.4,2.9-16,6.3l-2.2-2.7l1.1-0.9c0.6-0.4,0.9-1.1,1-1.8
					c0.1-0.7-0.1-1.4-0.6-1.9l-1.7-2.1c-0.9-1.1-2.6-1.3-3.7-0.4l-4.3,3.4c-0.6,0.4-0.9,1.1-1,1.8c-0.1,0.7,0.1,1.4,0.6,1.9l1.7,2.1
					c0.4,0.6,1.1,0.9,1.8,1c0.1,0,0.2,0,0.3,0c0.6,0,1.2-0.2,1.6-0.6l1.1-0.9l2.2,2.7c-7.4,6.2-12,15.6-12,25.9
					c0,18.8,15.3,34,34,34s34-15.3,34-34C-5.5,250.8-10.1,241.5-17.5,235.2z M-16.9,227.9l1.7-2.1c0,0,0.1,0,0.1,0l4.3,3.4
					c0,0,0,0,0,0.1s0,0.1,0,0.1l-1.7,2.1c0,0,0,0-0.1,0c0,0-0.1,0-0.1,0l-4.3-3.4C-16.9,228-16.9,228-16.9,227.9
					C-16.9,227.9-16.9,227.9-16.9,227.9z M-62.1,228l-4.3,3.4c0,0,0,0-0.1,0c0,0-0.1,0-0.1,0l-1.7-2.1c0,0,0,0,0-0.1
					c0,0,0-0.1,0-0.1l4.3-3.4c0,0,0,0,0.1,0c0,0,0.1,0,0.1,0l1.7,2.1C-62.1,227.9-62.1,227.9-62.1,228C-62.1,228-62.1,228-62.1,228z
					 M-45,216.1c0-3.1,2.5-5.5,5.5-5.5c3.1,0,5.5,2.5,5.5,5.5c0,1.6-0.7,3-1.8,4.1c-0.6-1.5-2-2.6-3.8-2.6s-3.2,1.1-3.8,2.6
					C-44.4,219.2-45,217.7-45,216.1z M-38,221.6v5.6c-0.5,0-1,0-1.5,0c-0.5,0-1,0-1.5,0v-5.6c0-0.8,0.7-1.5,1.5-1.5
					S-38,220.8-38,221.6z M-39.5,292.6c-17.4,0-31.5-14.1-31.5-31.5s14.1-31.5,31.5-31.5S-8,243.8-8,261.2S-22.1,292.6-39.5,292.6z"
					/>
			</g>
		</g>
		<g>
			<g>
				<path fill="#C1C7D1" d="M-22.4,240c-4.8-3.9-10.9-6-17.1-6c0,0,0,0,0,0c0,0,0,0,0,0c-0.4,0-0.9,0-1.3,0
					c-6.8,0.3-13.1,3.1-17.9,7.9s-7.6,11.1-7.9,17.9c0,0.4,0,0.9,0,1.3c0,0,0,0,0,0c0,0,0,0,0,0c0,6.2,2.1,12.2,6,17.1
					c0.3,0.3,0.6,0.5,1,0.5c0.3,0,0.6-0.1,0.8-0.3c0.5-0.4,0.6-1.2,0.2-1.8c-3.3-4.1-5.2-9-5.4-14.2h2.8c0.7,0,1.3-0.6,1.3-1.3
					c0-0.7-0.6-1.3-1.3-1.3h-2.8c0.3-6.1,2.9-11.8,7.2-16.2s10.1-6.9,16.2-7.2v2.8c0,0.7,0.6,1.3,1.3,1.3s1.3-0.6,1.3-1.3v-2.8
					c5.2,0.3,10.2,2.2,14.2,5.4c0.5,0.4,1.4,0.4,1.8-0.2C-21.8,241.3-21.8,240.5-22.4,240z"/>
			</g>
		</g>
		<g>
			<g>
				<path fill="#C1C7D1" d="M-23.6,245.3c-0.5-0.5-1.3-0.5-1.8,0l-12.3,12.3c-0.5-0.3-1.1-0.4-1.8-0.4c-2.2,0-4,1.8-4,4
					c0,0.6,0.2,1.2,0.4,1.8l-2.1,2.1c-0.5,0.5-0.5,1.3,0,1.8c0.2,0.2,0.6,0.4,0.9,0.4s0.7-0.1,0.9-0.4l2.1-2.1
					c0.5,0.3,1.1,0.4,1.8,0.4c2.2,0,4-1.8,4-4c0-0.6-0.2-1.2-0.4-1.8l12.3-12.3C-23.1,246.6-23.1,245.8-23.6,245.3z M-39.5,262.6
					c-0.8,0-1.5-0.7-1.5-1.5s0.7-1.5,1.5-1.5c0.8,0,1.5,0.7,1.5,1.5S-38.7,262.6-39.5,262.6z"/>
			</g>
		</g>
		<g>
			<g>
				<path fill="#C1C7D1" d="M-12.3,261.1c0-6.2-2.1-12.2-6-17.1c-0.4-0.5-1.2-0.6-1.8-0.2c-0.5,0.4-0.6,1.2-0.2,1.8
					c3.3,4.1,5.2,9,5.4,14.2h-2.8c-0.7,0-1.3,0.6-1.3,1.3c0,0.7,0.6,1.3,1.3,1.3h2.8c-0.3,6.1-2.9,11.8-7.2,16.2
					c-4.3,4.3-10.1,6.9-16.2,7.2V283c0-0.7-0.6-1.3-1.3-1.3s-1.3,0.6-1.3,1.3v2.8c-5.2-0.3-10.2-2.2-14.2-5.4
					c-0.5-0.4-1.4-0.4-1.8,0.2c-0.4,0.5-0.4,1.4,0.2,1.8c4.8,3.9,10.9,6,17.1,6c0.4,0,0.9,0,1.3,0c6.8-0.3,13.1-3.1,17.9-7.9
					c4.8-4.8,7.6-11.1,7.9-17.9C-12.3,262.1-12.3,261.6-12.3,261.1C-12.3,261.2-12.3,261.2-12.3,261.1
					C-12.3,261.2-12.3,261.2-12.3,261.1z"/>
			</g>
		</g>
	</g>
</g>
<g>
	<circle fill="#FFFFFF" cx="-182.7" cy="241.6" r="30.7"/>
	<circle fill="#FFFFFF" cx="-204.7" cy="264.4" r="5.1"/>
	<path fill="#FFFFFF" d="M-248.6,309.5l-1.8-1.8c-1.5-1.5-1.5-4,0.1-5.5l29.2-28.5c1.5-1.5,4-1.5,5.5,0.1l1.8,1.8
		c1.5,1.5,1.5,4-0.1,5.5l-29.2,28.5C-244.7,311.1-247.1,311-248.6,309.5z"/>
	<g>
		<g>
			<g>
				<path fill="#C1C7D1" d="M-182.3,209.3c-17.8,0-32.3,14.5-32.3,32.3c0,6.6,2,12.8,5.4,17.9c-0.1,0.1-0.2,0.2-0.3,0.3
					c-2.1,2.1-2.4,5.4-0.9,7.8l-5.2,5.2c-1-0.6-2.1-0.9-3.3-0.9c-1.7,0-3.3,0.7-4.5,1.9l-28.2,28.2c-2.5,2.5-2.5,6.5,0,9
					c1.2,1.2,2.9,1.9,4.5,1.9c1.6,0,3.3-0.6,4.5-1.9l28.2-28.2c1.2-1.2,1.9-2.8,1.9-4.5c0-1.2-0.3-2.3-0.9-3.3l5.2-5.2
					c1,0.6,2.2,0.9,3.3,0.9c1.6,0,3.3-0.6,4.5-1.9c0.1-0.1,0.2-0.2,0.3-0.3c5.1,3.4,11.3,5.4,17.9,5.4c17.8,0,32.3-14.5,32.3-32.3
					C-150,223.8-164.5,209.3-182.3,209.3z M-244.8,308.8c-1.3,1.3-3.4,1.3-4.7,0c-1.3-1.3-1.3-3.4,0-4.7l24.9-24.9l4.7,4.7
					L-244.8,308.8z M-216.6,280.6l-1.2,1.2l-4.7-4.7l1.2-1.2c0.6-0.6,1.5-1,2.4-1c0.9,0,1.7,0.3,2.4,1c0.6,0.6,1,1.5,1,2.4
					C-215.6,279.1-216,280-216.6,280.6z M-207.4,266.7c-1.3-1.3-1.3-3.4,0-4.7c1.4,1.7,3,3.3,4.7,4.7
					C-204,268-206.1,268-207.4,266.7z M-182.3,270.9c-16.2,0-29.3-13.1-29.3-29.3c0-16.2,13.1-29.3,29.3-29.3
					c16.2,0,29.3,13.1,29.3,29.3S-166.2,270.9-182.3,270.9z"/>
			</g>
		</g>
		<g>
			<g>
				<path fill="#C1C7D1" d="M-162.9,227.1c-0.5-0.7-1.5-0.8-2.1-0.3c-0.7,0.5-0.8,1.5-0.3,2.1c3,4,4.5,9.1,4.2,14.1
					c-0.3,4.5-2.1,8.8-5,12.3l-8.8-4.4c-0.6-0.3-1-0.9-1-1.5v-2.2c2-1.8,3.2-4.3,3.2-7.2v-1.7c0,0,0.1,0,0.1,0
					c0.8,0,1.5-0.7,1.5-1.5v-3.2c0-5.3-4.3-9.6-9.6-9.6h-3.2c-5.3,0-9.6,4.3-9.6,9.6v3.2c0,0.8,0.7,1.5,1.5,1.5c0,0,0,0,0.1,0v1.7
					c0,2.9,1.3,5.4,3.2,7.2v2.2c0,0.7-0.4,1.2-1,1.5l-8.8,4.4c-7-8.3-6.7-20.8,1.2-28.7c3.6-3.6,8.4-5.8,13.6-6.2
					c5.1-0.3,10.1,1.1,14.1,4.2c0.7,0.5,1.6,0.4,2.1-0.3s0.4-1.6-0.3-2.1c-4.6-3.5-10.4-5.2-16.1-4.8c-5.8,0.4-11.3,2.9-15.5,7
					c-9.4,9.4-9.4,24.8,0,34.3c4.7,4.7,10.9,7.1,17.1,7.1c6.2,0,12.4-2.4,17.1-7.1c4.1-4.1,6.6-9.6,7-15.5
					C-157.8,237.5-159.5,231.7-162.9,227.1z M-190.5,234.9v-1.4l0,0c0-3.6,3-6.6,6.6-6.6h3.2c3.6,0,6.6,3,6.6,6.6v1.7
					c-6.6-0.4-10.6-2.9-10.6-2.9c-0.3-0.2-0.5-0.3-0.8-0.3c-0.4,0-0.8,0.2-1.1,0.4C-188.1,233.9-189.5,234.6-190.5,234.9z
					 M-188.9,240v-2.4l0,0c1.1-0.4,2.3-1.1,3.6-2.2c1.6,0.8,4.9,2.3,9.6,2.7v1.9c0,3.6-3,6.6-6.6,6.6
					C-186,246.6-188.9,243.6-188.9,240z M-183.8,262.7c-4.5-0.3-8.8-2-12.4-5.2l8-4c0.3-0.1,0.5-0.3,0.8-0.5l3.7,3.7V262.7z
					 M-182.3,254.1l-3.5-3.5c0.1-0.4,0.2-0.8,0.2-1.2V249c1,0.4,2.2,0.6,3.3,0.6c1.2,0,2.3-0.2,3.3-0.6v0.3c0,0.4,0.1,0.8,0.2,1.2
					L-182.3,254.1z M-180.8,262.7v-5.9l3.7-3.7c0.2,0.2,0.5,0.3,0.8,0.5l8,4C-172,260.7-176.3,262.4-180.8,262.7z"/>
			</g>
		</g>
	</g>
</g>
</svg>
