<?xml version="1.0" standalone="no"?>
<!DOCTYPE svg PUBLIC "-//W3C//DTD SVG 20010904//EN"
 "http://www.w3.org/TR/2001/REC-SVG-20010904/DTD/svg10.dtd">
<svg version="1.0" xmlns="http://www.w3.org/2000/svg"
 width="169.000000pt" height="169.000000pt" viewBox="0 0 169.000000 169.000000"
 preserveAspectRatio="xMidYMid meet">
<metadata>
Created by potrace 1.14, written by Peter Selinger 2001-2017
</metadata>
<g transform="translate(0.000000,169.000000) scale(0.100000,-0.100000)"
fill="#000000" stroke="none">
<path d="M129 1577 c-1 -52 -1 -259 0 -270 1 -5 5 -6 10 -2 16 10 100 -14 141
-40 49 -31 96 -94 111 -149 6 -23 12 -134 13 -251 l1 -210 153 -3 c140 -2 152
-1 153 15 6 142 148 264 288 248 144 -17 244 -127 243 -268 -1 -136 -89 -230
-242 -261 l-25 -5 0 -152 0 -151 60 5 c239 21 452 212 501 449 75 359 -191
686 -557 688 -41 0 -86 -2 -101 -4 -40 -6 -130 -37 -155 -53 -21 -14 -22 -13
-36 35 -26 87 -70 162 -133 231 -95 102 -216 165 -342 177 -31 3 -63 7 -69 9
-9 3 -13 -9 -14 -38z"/>
</g>
</svg>
